# This file uses centimeters as units for non-parametric coordinates.

mtllib BridgeJustinCase.mtl
g default
v 17.424505 -0.203962 -5.358716
v 3.106405 2.993644 -5.358716
v 17.424505 1.257407 -5.358716
v 3.106405 4.455013 -5.358716
v 17.424505 1.257407 6.301138
v 3.106405 4.455013 6.301138
v 17.424505 -0.203962 6.301138
v 3.106405 2.993644 6.301138
v 10.154962 2.993644 6.301138
v 10.154962 2.993644 -5.358716
v 10.154962 2.993790 -5.358716
v 8.661802 4.455013 -5.358716
v 9.396352 4.416930 -5.358716
v 10.123025 4.303089 -5.358716
v 10.834030 4.114711 -5.358716
v 11.521742 3.853816 -5.358716
v 10.154962 2.993790 6.301138
v 11.521742 3.853816 6.301138
v 10.834030 4.114711 6.301138
v 10.123025 4.303089 6.301138
v 9.396352 4.416930 6.301138
v 8.661802 4.455013 6.301138
v -11.147987 -0.203962 6.301138
v 3.170113 2.993644 6.301138
v -11.147987 1.257407 6.301138
v 3.170113 4.455013 6.301138
v -11.147987 1.257407 -5.358716
v 3.170113 4.455013 -5.358716
v -11.147987 -0.203962 -5.358716
v 3.170113 2.993644 -5.358716
v -3.878444 2.993644 -5.358716
v -3.878444 2.993644 6.301138
v -3.878444 2.993790 6.301138
v -2.385284 4.455013 6.301138
v -3.119834 4.416930 6.301138
v -3.846507 4.303089 6.301138
v -4.557512 4.114711 6.301138
v -5.245224 3.853816 6.301138
v -3.878444 2.993790 -5.358716
v -5.245224 3.853816 -5.358716
v -4.557512 4.114711 -5.358716
v -3.846507 4.303089 -5.358716
v -3.119834 4.416930 -5.358716
v -2.385284 4.455013 -5.358716
vt 0.625000 0.000000
vt 0.375000 0.250000
vt 0.375000 1.000000
vt 0.625000 1.000000
vt 0.875000 0.000000
vt 0.875000 0.250000
vt 0.125000 0.000000
vt 0.125000 0.250000
vt 0.501929 1.000000
vt 0.375000 0.000000
vt 0.501929 0.000000
vt 0.625000 0.250000
vt 0.375000 0.750000
vt 0.501929 0.750000
vt 0.625000 0.750000
vt 0.375000 0.500000
vt 0.625000 0.500000
vt 0.478065 0.250000
vt 0.528000 0.500000
vt 0.528000 0.250000
vt 0.501929 0.000025
vt 0.478065 0.500000
vt 0.501929 0.749975
vt 0.515040 0.244576
vt 0.501929 0.250000
vt 0.490199 0.243711
vt 0.490199 0.506289
vt 0.501929 0.500000
vt 0.515040 0.505424
vt 0.375000 0.000000
vt 0.501929 0.000000
vt 0.501929 0.000025
vt 0.478065 0.250000
vt 0.375000 0.250000
vt 0.478065 0.500000
vt 0.375000 0.500000
vt 0.501929 0.749975
vt 0.501929 0.750000
vt 0.375000 0.750000
vt 0.501929 1.000000
vt 0.375000 1.000000
vt 0.625000 0.000000
vt 0.875000 0.000000
vt 0.875000 0.250000
vt 0.625000 0.250000
vt 0.125000 0.000000
vt 0.125000 0.250000
vt 0.528000 0.500000
vt 0.528000 0.250000
vt 0.625000 0.500000
vt 0.625000 0.750000
vt 0.625000 1.000000
vt 0.490199 0.243711
vt 0.490199 0.506289
vt 0.501929 0.250000
vt 0.501929 0.500000
vt 0.515040 0.244576
vt 0.515040 0.505424
vn 0.000000 0.000000 -1.000000
vn 0.000000 0.000000 -1.000000
vn 0.000000 0.000000 -1.000000
vn 0.000000 0.000000 -1.000000
vn 0.000000 0.000000 -1.000000
vn 0.402634 0.915361 0.000000
vn 0.397775 0.917483 0.000000
vn 0.397775 0.917483 0.000000
vn 0.402634 0.915361 0.000000
vn 0.000000 0.000000 1.000000
vn 0.000000 0.000000 1.000000
vn 0.000000 0.000000 1.000000
vn 0.000000 0.000000 1.000000
vn 0.000000 0.000000 1.000000
vn -0.402634 -0.915361 0.000000
vn -0.217957 -0.975958 0.000000
vn -0.217957 -0.975958 0.000000
vn -0.402634 -0.915361 0.000000
vn -1.000000 0.000000 0.000000
vn -1.000000 0.000000 0.000000
vn -1.000000 0.000000 0.000000
vn -1.000000 0.000000 0.000000
vn 1.000000 0.000000 0.000000
vn 1.000000 0.000000 0.000000
vn 1.000000 0.000000 0.000000
vn 1.000000 0.000000 0.000000
vn 0.006054 0.999982 0.000000
vn 0.006054 0.999982 0.000000
vn 0.000000 1.000000 0.000000
vn 0.000000 1.000000 0.000000
vn -0.000000 0.000000 1.000000
vn -0.000000 0.000000 1.000000
vn -0.000000 0.000000 1.000000
vn -0.000000 -1.000000 0.000000
vn -0.000000 -1.000000 0.000000
vn 0.000000 0.000000 -1.000000
vn 0.000000 0.000000 -1.000000
vn 0.000000 0.000000 -1.000000
vn 0.305815 0.952091 0.000000
vn 0.305815 0.952091 0.000000
vn 0.205717 0.978612 0.000000
vn 0.205717 0.978612 0.000000
vn 0.103413 0.994639 0.000000
vn 0.103413 0.994639 0.000000
vn 0.000000 0.000000 -1.000000
vn 0.000000 0.000000 -1.000000
vn 0.000000 0.000000 -1.000000
vn 0.000000 0.000000 1.000000
vn 0.000000 0.000000 1.000000
vn 0.000000 0.000000 1.000000
vn -0.000000 0.000000 1.000000
vn -0.000000 0.000000 1.000000
vn -0.000000 0.000000 1.000000
vn -0.000000 0.000000 1.000000
vn -0.000000 0.000000 1.000000
vn -0.402634 0.915361 0.000000
vn -0.397775 0.917483 0.000000
vn -0.397775 0.917483 0.000000
vn -0.402634 0.915361 0.000000
vn -0.000000 0.000000 -1.000000
vn -0.000000 0.000000 -1.000000
vn -0.000000 0.000000 -1.000000
vn -0.000000 0.000000 -1.000000
vn -0.000000 0.000000 -1.000000
vn 0.402634 -0.915361 0.000000
vn 0.217957 -0.975958 0.000000
vn 0.217957 -0.975958 0.000000
vn 0.402634 -0.915361 0.000000
vn 1.000000 0.000000 0.000000
vn 1.000000 0.000000 0.000000
vn 1.000000 0.000000 0.000000
vn 1.000000 0.000000 0.000000
vn -1.000000 0.000000 0.000000
vn -1.000000 0.000000 0.000000
vn -1.000000 0.000000 0.000000
vn -1.000000 0.000000 0.000000
vn -0.006054 0.999982 0.000000
vn -0.006054 0.999982 0.000000
vn 0.000000 1.000000 0.000000
vn 0.000000 1.000000 0.000000
vn -0.000000 0.000000 -1.000000
vn -0.000000 0.000000 -1.000000
vn -0.000000 0.000000 -1.000000
vn 0.000000 -1.000000 0.000000
vn 0.000000 -1.000000 0.000000
vn 0.000000 0.000000 1.000000
vn 0.000000 0.000000 1.000000
vn 0.000000 0.000000 1.000000
vn -0.305815 0.952091 0.000000
vn -0.305815 0.952091 0.000000
vn -0.205717 0.978612 0.000000
vn -0.205717 0.978612 0.000000
vn -0.103413 0.994639 0.000000
vn -0.103413 0.994639 0.000000
vn 0.000000 0.000000 1.000000
vn 0.000000 0.000000 1.000000
vn 0.000000 0.000000 1.000000
vn 0.000001 0.000000 -1.000000
vn 0.000000 0.000000 -1.000000
vn 0.000000 0.000000 -1.000000
s 1
g group1
usemtl initialShadingGroup
f 1/10/1 10/11/2 11/21/3 16/18/4 3/2/5
s 2
f 3/2/6 16/18/7 18/22/8 5/16/9
s 3
f 5/16/10 18/22/11 17/23/12 9/14/13 7/13/14
s 4
f 7/13/15 9/14/16 10/9/17 1/3/18
s off
f 2/1/19 8/5/20 6/6/21 4/12/22
f 7/7/23 1/10/24 3/2/25 5/8/26
s 2
f 22/19/27 12/20/28 4/12/29 6/17/30
s 3
f 9/14/13 17/23/12 22/19/31 6/17/32 8/15/33
s 4
f 10/9/17 9/14/16 8/15/34 2/4/35
s 1
f 12/20/36 11/21/3 10/11/2 2/1/37 4/12/38
s 2
f 16/18/7 15/26/39 19/27/40 18/22/8
f 15/26/39 14/25/41 20/28/42 19/27/40
f 14/25/41 13/24/43 21/29/44 20/28/42
f 13/24/43 12/20/28 22/19/27 21/29/44
s 1
f 11/21/3 12/20/36 13/24/45
f 11/21/3 13/24/45 14/25/46
f 11/21/3 14/25/46 15/26/47
f 11/21/3 15/26/47 16/18/4
s 3
f 17/23/12 18/22/11 19/27/48
f 17/23/12 19/27/48 20/28/49
f 17/23/12 20/28/49 21/29/50
f 17/23/12 21/29/50 22/19/31
s 6
f 23/30/51 32/31/52 33/32/53 38/33/54 25/34/55
s 7
f 25/34/56 38/33/57 40/35/58 27/36/59
s 8
f 27/36/60 40/35/61 39/37/62 31/38/63 29/39/64
s 9
f 29/39/65 31/38/66 32/40/67 23/41/68
s off
f 24/42/69 30/43/70 28/44/71 26/45/72
f 29/46/73 23/30/74 25/34/75 27/47/76
s 7
f 44/48/77 34/49/78 26/45/79 28/50/80
s 8
f 31/38/63 39/37/62 44/48/81 28/50/82 30/51/83
s 9
f 32/40/67 31/38/66 30/51/84 24/52/85
s 6
f 34/49/86 33/32/53 32/31/52 24/42/87 26/45/88
s 7
f 38/33/57 37/53/89 41/54/90 40/35/58
f 37/53/89 36/55/91 42/56/92 41/54/90
f 36/55/91 35/57/93 43/58/94 42/56/92
f 35/57/93 34/49/78 44/48/77 43/58/94
s 6
f 33/32/53 34/49/86 35/57/95
f 33/32/53 35/57/95 36/55/96
f 33/32/53 36/55/96 37/53/97
f 33/32/53 37/53/97 38/33/54
s 8
f 39/37/62 40/35/61 41/54/98
f 39/37/62 41/54/98 42/56/99
f 39/37/62 42/56/99 43/58/100
f 39/37/62 43/58/100 44/48/81
